<svg width="62" height="14" viewBox="0 0 62 14" fill="none" xmlns="http://www.w3.org/2000/svg">
    <path d="M7.98497 13.8112H11.4458L6.05801 6.40655L11.2073 0H7.73363L3.35124 5.51638H2.79055V0H0V13.8112H2.79055V7.92389H3.74437L7.98497 13.8112Z"
          fill="#4C95BD"/>
    <path d="M14.3641 14H15.3566C17.522 14 18.3921 12.6378 19.0559 11.1002L23.6058 0H20.7573L18.16 6.79769L15.0537 0H12.1665L16.9613 9.94027L16.8002 10.3921C16.5295 11.2081 16.1429 11.6262 15.0795 11.6262H14.3641V14Z"
          fill="#4C95BD"/>
    <path d="M25.2062 13.8112H30.1429C33.275 13.8112 35.2213 12.0106 35.2213 9.40077C35.2213 6.7842 33.275 5.10501 30.1429 5.10501H27.9968V2.40751H33.9646V0H25.2062V13.8112ZM27.9968 11.4644V7.41137H30.1429C31.638 7.41137 32.4565 8.27457 32.4565 9.3738C32.4565 10.5067 31.638 11.4644 30.1429 11.4644H27.9968Z"
          fill="#4C95BD"/>
    <path d="M37.1246 0V13.8112H39.5349L45.2771 5.1185H45.3738V13.8112H48.1643V0H45.7154L40.0182 8.68593H39.9022V0H37.1246Z"
          fill="#4C95BD"/>
    <path d="M58.5392 13.8112H62L56.6122 6.40655L61.7616 0H58.2879L53.9055 5.51638H53.3448V0H50.5542V13.8112H53.3448V7.92389H54.2986L58.5392 13.8112Z"
          fill="#4C95BD"/>
</svg>
