<svg width="192" height="72" viewBox="0 0 192 72" fill="none" xmlns="http://www.w3.org/2000/svg">
    <rect x="26" y="36" width="9" height="9" fill="#4C95BD"/>
    <rect x="13" y="36" width="9" height="9" fill="#4C95BD"/>
    <rect y="36" width="9" height="9" fill="#4C95BD"/>
    <rect x="26" y="23" width="9" height="9" fill="#4C95BD"/>
    <rect x="13" y="23" width="9" height="9" fill="#4C95BD"/>
    <rect y="23" width="9" height="9" fill="#4C95BD"/>
    <rect x="26" y="10" width="9" height="9" fill="#4C95BD"/>
    <rect x="13" y="10" width="9" height="9" fill="#4C95BD"/>
    <rect y="10" width="9" height="9" fill="#4C95BD"/>
    <path d="M0.96875 61H3.85938C5.75 61 6.53125 60.0781 6.53125 58.875C6.53125 57.6094 5.65625 56.9219 4.92188 56.875V56.7969C5.60938 56.6094 6.21875 56.1562 6.21875 55.125C6.21875 53.9531 5.4375 53 3.76563 53H0.96875V61ZM1.9375 60.1406V57.3594H3.90625C4.95313 57.3594 5.60938 58.0625 5.60938 58.875C5.60938 59.5781 5.125 60.1406 3.85938 60.1406H1.9375ZM1.9375 56.5156V53.8594H3.76563C4.82813 53.8594 5.29688 54.4219 5.29688 55.125C5.29688 55.9687 4.60938 56.5156 3.73438 56.5156H1.9375ZM8.94617 61L9.75086 58.7344H12.9852L13.7899 61H14.8055L11.868 53H10.868L7.93055 61H8.94617ZM10.0555 57.875L11.3368 54.2656H11.3993L12.6805 57.875H10.0555ZM16.5466 53V61H25.0779V53H24.1091V60.1094H21.2966V53H20.3279V60.1094H17.5154V53H16.5466ZM27.8434 61L28.6481 58.7344H31.8825L32.6871 61H33.7028L30.7653 53H29.7653L26.8278 61H27.8434ZM28.9528 57.875L30.234 54.2656H30.2965L31.5778 57.875H28.9528ZM41.5951 61.1094C43.1459 61.1094 44.2982 60.1367 44.2982 58.8281C44.2982 57.8125 43.6967 57.0742 42.6889 56.9062V56.8438C43.4975 56.5977 44.0014 55.9336 44.0014 55.0313C44.0014 53.8984 43.1068 52.8906 41.6264 52.8906C40.2436 52.8906 39.0951 53.7422 39.0482 55H39.9857C40.0209 54.2031 40.7787 53.7344 41.6107 53.7344C42.4936 53.7344 43.0639 54.2695 43.0639 55.0781C43.0639 55.9219 42.4037 56.4687 41.4545 56.4687H40.8139V57.3281H41.4545C42.6693 57.3281 43.3451 57.9453 43.3451 58.8281C43.3451 59.6758 42.6068 60.25 41.5795 60.25C40.6537 60.25 39.9193 59.7734 39.8607 59H38.8764C38.935 60.2578 40.0443 61.1094 41.5951 61.1094ZM46.8596 61L47.6643 58.7344H50.8987L51.7034 61H52.719L49.7815 53H48.7815L45.844 61H46.8596ZM47.969 57.875L49.2503 54.2656H49.3128L50.594 57.875H47.969ZM63.7726 60.1406H62.9914V53H62.0226V60.1094H59.2101V53H58.2414V60.1094H55.4289V53H54.4601V61H62.7101V62.8906H63.6632L63.7726 60.1406ZM65.7403 53V61H66.6778L71.0371 54.7187H71.1153V61H72.084V53H71.1465L66.7715 59.2969H66.6934V53H65.7403ZM74.08 53.8594H76.5956V61H77.5644V53.8594H80.08V53H74.08V53.8594ZM81.4637 61L82.2684 58.7344H85.5027L86.3074 61H87.323L84.3855 53H83.3855L80.448 61H81.4637ZM82.573 57.875L83.8543 54.2656H83.9168L85.198 57.875H82.573ZM102.684 56.5703H91.6841V57.4297H102.684V56.5703ZM107.737 61H108.705V57.4219H112.971V61H113.94V53H112.971V56.5625H108.705V53H107.737V61ZM116.702 61L117.507 58.7344H120.741L121.546 61H122.562L119.624 53H118.624L115.687 61H116.702ZM117.812 57.875L119.093 54.2656H119.155L120.437 57.875H117.812ZM124.303 53V61H132.834V53H131.865V60.1094H129.053V53H128.084V60.1094H125.272V53H124.303ZM135.6 61L136.404 58.7344H139.639L140.443 61H141.459L138.521 53H137.521L134.584 61H135.6ZM136.709 57.875L137.99 54.2656H138.053L139.334 57.875H136.709ZM149.351 61.1094C150.902 61.1094 152.054 60.1367 152.054 58.8281C152.054 57.8125 151.453 57.0742 150.445 56.9062V56.8438C151.254 56.5977 151.758 55.9336 151.758 55.0313C151.758 53.8984 150.863 52.8906 149.383 52.8906C148 52.8906 146.851 53.7422 146.804 55H147.742C147.777 54.2031 148.535 53.7344 149.367 53.7344C150.25 53.7344 150.82 54.2695 150.82 55.0781C150.82 55.9219 150.16 56.4687 149.211 56.4687H148.57V57.3281H149.211C150.426 57.3281 151.101 57.9453 151.101 58.8281C151.101 59.6758 150.363 60.25 149.336 60.25C148.41 60.25 147.676 59.7734 147.617 59H146.633C146.691 60.2578 147.801 61.1094 149.351 61.1094ZM154.616 61L155.421 58.7344H158.655L159.46 61H160.475L157.538 53H156.538L153.6 61H154.616ZM155.725 57.875L157.006 54.2656H157.069L158.35 57.875H155.725ZM162.216 61H165.216C166.935 61 167.873 60.0312 167.873 58.6406C167.873 57.25 166.935 56.3594 165.216 56.3594H163.185V53.8594H167.044V53H162.216V61ZM163.185 60.1562V57.2188H165.216C166.31 57.2188 166.919 57.8594 166.919 58.625C166.919 59.4062 166.31 60.1562 165.216 60.1562H163.185ZM176.712 57C176.712 54.4688 175.228 52.8906 173.181 52.8906C171.134 52.8906 169.65 54.4688 169.65 57C169.65 59.5312 171.134 61.1094 173.181 61.1094C175.228 61.1094 176.712 59.5312 176.712 57ZM175.775 57C175.775 59.0781 174.634 60.2031 173.181 60.2031C171.728 60.2031 170.587 59.0781 170.587 57C170.587 54.9219 171.728 53.7969 173.181 53.7969C174.634 53.7969 175.775 54.9219 175.775 57ZM178.066 53.8594H180.581V61H181.55V53.8594H184.066V53H178.066V53.8594ZM185.449 61L186.254 58.7344H189.488L190.293 61H191.309L188.371 53H187.371L184.434 61H185.449ZM186.559 57.875L187.84 54.2656H187.902L189.184 57.875H186.559Z"
          fill="#767676"/>
    <path d="M63.8033 44.5279H71.953L59.2656 26.0164L71.3914 10H63.2115L52.8916 23.7909H51.5713V10H45V44.5279H51.5713V29.8097H53.8174L63.8033 44.5279Z"
          fill="#4C95BD"/>
    <path d="M78.8252 45H81.1623C86.2615 45 88.3103 41.5944 89.8735 37.7505L100.588 10H93.88L87.764 26.9942L80.449 10H73.6501L84.9412 34.8507L84.5618 35.9802C83.9244 38.0202 83.0138 39.0655 80.5098 39.0655H78.8252V45Z"
          fill="#4C95BD"/>
    <path d="M104.357 44.5279H115.982C123.357 44.5279 127.94 40.0265 127.94 33.5019C127.94 26.9605 123.357 22.7625 115.982 22.7625H110.928V16.0188H124.981V10H104.357V44.5279ZM110.928 38.6609V28.5284H115.982C119.502 28.5284 121.43 30.6864 121.43 33.4345C121.43 36.2669 119.502 38.6609 115.982 38.6609H110.928Z"
          fill="#4C95BD"/>
    <path d="M132.422 10V44.5279H138.098L151.62 22.7962H151.848V44.5279H158.419V10H152.652L139.237 31.7148H138.963V10H132.422Z"
          fill="#4C95BD"/>
    <path d="M182.85 44.5279H191L178.313 26.0164L190.438 10H182.258L171.939 23.7909H170.618V10H164.047V44.5279H170.618V29.8097H172.864L182.85 44.5279Z"
          fill="#4C95BD"/>
</svg>
