<svg width="16" height="16" viewBox="0 0 16 16" fill="none" xmlns="http://www.w3.org/2000/svg">
<path d="M12.6688 11.3318C11.5688 11.3318 10.6738 12.2268 10.6738 13.3268C10.6738 14.4268 11.5688 15.3218 12.6688 15.3218C13.7689 15.3218 14.6639 14.4268 14.6639 13.3268C14.6639 12.2268 13.7689 11.3318 12.6688 11.3318ZM12.6688 14.1248C12.2287 14.1248 11.8708 13.7669 11.8708 13.3268C11.8708 12.8867 12.2287 12.5288 12.6688 12.5288C13.1089 12.5288 13.4668 12.8867 13.4668 13.3268C13.4668 13.7669 13.1089 14.1248 12.6688 14.1248Z" fill="#3F3F3F"/>
<path d="M15.8728 3.62105C15.7595 3.47602 15.5857 3.39143 15.4016 3.39143H3.6944L3.15574 1.13766C3.0913 0.868349 2.85049 0.678223 2.57358 0.678223H0.598504C0.267939 0.678191 0 0.94613 0 1.27669C0 1.60726 0.267939 1.8752 0.598504 1.8752H2.10117L4.04631 10.0141C4.11074 10.2836 4.35156 10.4735 4.62846 10.4735H13.9452C14.2204 10.4735 14.4601 10.286 14.5262 10.0191L15.9826 4.13374C16.0266 3.95502 15.9861 3.76608 15.8728 3.62105ZM13.477 9.27656H5.10087L3.98046 4.58843H14.6369L13.477 9.27656Z" fill="#3F3F3F"/>
<path d="M5.42568 11.3318C4.32561 11.3318 3.43066 12.2268 3.43066 13.3268C3.43066 14.4268 4.32564 15.3218 5.42568 15.3218C6.52571 15.3218 7.42069 14.4268 7.42069 13.3268C7.42069 12.2268 6.52571 11.3318 5.42568 11.3318ZM5.42568 14.1248C4.98558 14.1248 4.62767 13.7669 4.62767 13.3268C4.62767 12.8867 4.98558 12.5288 5.42568 12.5288C5.86577 12.5288 6.22368 12.8867 6.22368 13.3268C6.22368 13.7669 5.86577 14.1248 5.42568 14.1248Z" fill="#3F3F3F"/>
</svg>
